<svg preserveAspectRatio="none" data-bbox="20 20 160 160" viewBox="20 20 160 160" xmlns="http://www.w3.org/2000/svg" data-type="color" role="presentation" aria-hidden="true" aria-label=""><defs><style>#comp-m1mea4821 svg [data-color="1"] {fill: #1D0E03;}</style></defs>
    <g>
        <path style="isolation:isolate" fill="#5f00d8" opacity=".1" d="M163.3 104c0 32.143-28.206 58.2-63 58.2s-63-26.057-63-58.2 28.206-58.2 63-58.2 63 26.057 63 58.2z" data-color="1"></path>
        <path d="M140 20H60c-22.1 0-40 17.9-40 40v80c0 22.1 17.9 40 40 40h80c22.1 0 40-17.9 40-40V60c0-22.1-17.9-40-40-40ZM91.7 56.5c0-2.5 2-4.5 4.4-4.5h7.8c2.4 0 4.4 2 4.4 4.5v36.4H91.7V56.5Zm53 23-29.2 30.2 22.2 22.9c1.7 1.8 1.7 4.6 0 6.4l-5.5 5.7-.1.1c-1.7 1.6-4.4 1.6-6-.1l-26-26.9-26 26.9-.1.1c-1.7 1.6-4.4 1.6-6-.1l-5.5-5.7c-1.7-1.8-1.7-4.6 0-6.4l22.2-22.9-29.2-30.2c-1.7-1.8-1.7-4.6 0-6.4l5.5-5.7.1-.1c1.7-1.6 4.4-1.6 6 .1L91.9 93v12.1c0 2.5 2 4.5 4.4 4.5h7.8c2.4 0 4.4-2 4.4-4.5V93l24.8-25.6.1-.1c1.7-1.6 4.4-1.6 6 .1l5.5 5.7c1.7 1.8 1.7 4.6 0 6.4Z" fill="#5f00d8" data-color="1"></path>
    </g>
</svg>