<svg preserveAspectRatio="none" data-bbox="20 20 160 160" viewBox="20 20 160 160" xmlns="http://www.w3.org/2000/svg" data-type="color" role="presentation" aria-hidden="true" aria-label=""><defs><style>#comp-m1mea4hw svg [data-color="1"] {fill: #1D0E03;}</style></defs>
    <g>
        <path d="M65.9 33.3h67.5c18.6 0 33.7 15.1 33.7 33.7v67.5c0 18.6-15.1 33.7-33.7 33.7H65.9c-18.6 0-33.7-15.1-33.7-33.7V67c0-18.6 15.1-33.7 33.7-33.7Z" style="isolation:isolate" fill="#5f00d8" opacity=".1" data-color="1"></path>
        <path d="M140 20H60c-22.1 0-40 17.9-40 40v80c0 22.1 17.9 40 40 40h80c22.1 0 40-17.9 40-40V60c0-22.1-17.9-40-40-40Zm-13.6 53.6v-13c0-2.6 2.1-4.6 4.6-4.6h8.3c2.6 0 4.6 2.1 4.6 4.6v8.3c0 2.6-2.1 4.6-4.6 4.6h-13v17.6h13c2.6 0 4.6 2.1 4.6 4.6v8.3c0 2.6-2.1 4.6-4.6 4.6h-13V91h-17.5v17.6H91.2V91h17.5V73.4h17.6ZM56 60.6c0-2.6 2.1-4.6 4.6-4.6h8.3c2.6 0 4.6 2.1 4.6 4.6v13h17.6v-13c0-2.6 2.1-4.6 4.6-4.6h8.3c2.6 0 4.6 2.1 4.6 4.6v13H91v17.6H73.5v17.6h-13c-2.6 0-4.6-2.1-4.6-4.6v-8.3c0-2.6 2.1-4.6 4.6-4.6h12.9V73.7H60.5c-2.6 0-4.6-2.1-4.6-4.6v-8.3Zm70.4 65.8h-17.6v12.9c0 2.6-2.1 4.6-4.6 4.6h-8.3c-2.6 0-4.6-2.1-4.6-4.6v-12.9H73.8v12.9c0 2.6-2.1 4.6-4.6 4.6h-8.3c-2.6 0-4.6-2.1-4.6-4.6V131c0-2.6 2.1-4.6 4.6-4.6h12.9v-17.6h17.6v17.6h17.5v-17.6h17.6v17.6Zm17.6 13c0 2.6-2.1 4.6-4.6 4.6h-8.3c-2.6 0-4.6-2.1-4.6-4.6v-13h13c2.6 0 4.6 2.1 4.6 4.6v8.3Z" style="isolation:isolate" fill="#5f00d8" data-color="1"></path>
    </g>
</svg>