<svg preserveAspectRatio="none" data-bbox="20 20 160 160" viewBox="20 20 160 160" xmlns="http://www.w3.org/2000/svg" data-type="color" role="presentation" aria-hidden="true" aria-label=""><defs><style>#comp-m1mea4h8 svg [data-color="1"] {fill: #1D0E03;}</style></defs>
    <g>
        <path d="M67.2 33.7h66.2c18.3 0 33.1 14.8 33.1 33.1v66.3c0 18.3-14.8 33.1-33.1 33.1H67.2c-18.3 0-33.1-14.8-33.1-33.1V66.8c0-18.3 14.8-33.1 33.1-33.1Z" style="isolation:isolate" fill="#5f00d8" opacity=".1" data-color="1"></path>
        <path d="M140 20H60c-22.1 0-40 17.9-40 40v80c0 22.1 17.9 40 40 40h80c22.1 0 40-17.9 40-40V60c0-22.1-17.9-40-40-40Zm-10 121.8c0 2.4-2 4.4-4.4 4.4H75.1c-2.4 0-4.4-2-4.4-4.4v-12.2H130v12.2Zm16.5-16.7c0 2.4-2 4.4-4.4 4.4h-12.2V70.6H70.6v59H58.4c-2.4 0-4.4-2-4.4-4.4V74.7c0-2.4 2-4.4 4.4-4.4h12.2V58.4c0-2.4 2-4.4 4.4-4.4h50.5c2.4 0 4.4 2 4.4 4.4v11.9h12.2c2.5 0 4.4 1.9 4.4 4.3v50.5Z" style="isolation:isolate" fill="#5f00d8" data-color="1"></path>
    </g>
</svg>