<svg preserveAspectRatio="none" data-bbox="20 20 160 160" viewBox="20 20 160 160" xmlns="http://www.w3.org/2000/svg" data-type="color" role="presentation" aria-hidden="true" aria-label=""><defs><style>#comp-m1mea4i91 svg [data-color="1"] {fill: #1D0E03;}</style></defs>
    <g>
        <path d="M140 20H60c-22.1 0-40 17.9-40 40v80c0 22.1 17.9 40 40 40h80c22.1 0 40-17.9 40-40V60c0-22.1-17.9-40-40-40Zm-2 47.9c2.5-1.4 5.6-.6 7 1.9l3.9 6.7c1.4 2.5.6 5.6-1.9 7l-10 5.8-9-15.6 10-5.8ZM69.7 55l6.7-3.9c2.5-1.4 5.6-.6 7 1.9l5.8 10-15.6 9-5.8-10c-1.4-2.5-.6-5.6 1.9-7ZM51.4 76.4l4-6.6c1.5-2.4 4.6-3.2 7.1-1.8l9.9 6-9.3 15.4-9.9-6c-2.4-1.5-3.2-4.6-1.8-7.1ZM46 103.9v-7.7c0-2.8 2.3-5.1 5.1-5.1h11.6v18H51.1c-2.8 0-5.1-2.3-5.1-5.1Zm9 26.4-3.9-6.7c-1.4-2.5-.6-5.6 1.9-7l10-5.8 9 15.6-10 5.8c-2.5 1.4-5.6.6-7-1.9Zm28.5 16.5c-1.5 2.4-4.6 3.2-7.1 1.8l-6.6-4c-2.4-1.5-3.2-4.6-1.8-7.1s6-9.9 6-9.9l15.4 9.3-6 9.9Zm25.5 2.1c0 2.8-2.3 5.1-5.1 5.1h-7.7c-2.8 0-5.1-2.3-5.1-5.1v-11.6h18v11.6Zm0-45c0 2.8-2.3 5.1-5.1 5.1h-7.7c-2.8 0-5.1-2.3-5.1-5.1v-7.7c0-2.8 2.3-5.1 5.1-5.1h7.7c2.8 0 5.1 2.3 5.1 5.1v7.7Zm0-41.2H91V51.1c0-2.8 2.3-5.1 5.1-5.1h7.7c2.8 0 5.1 2.3 5.1 5.1v11.6Zm7.5-9.5c1.5-2.4 4.6-3.2 7.1-1.8l6.6 4c2.4 1.5 3.2 4.6 1.8 7.1l-6 9.9-15.4-9.3 6-9.9Zm13.8 91.8-6.7 3.9c-2.5 1.4-5.6.6-7-1.9l-5.8-10 15.6-9 5.8 10c1.4 2.5.6 5.6-1.9 7Zm18.3-21.4-4 6.6c-1.5 2.4-4.6 3.2-7.1 1.8s-9.9-6-9.9-6l9.3-15.4 9.9 6c2.4 1.5 3.2 4.6 1.8 7.1Zm5.4-19.7c0 2.8-2.3 5.1-5.1 5.1h-11.6V91h11.6c2.8 0 5.1 2.3 5.1 5.1v7.7Z" style="isolation:isolate" fill="#5f00d8" data-color="1"></path>
        <path d="M66.1 32.2h67.8c18.7 0 33.9 15.2 33.9 33.9v67.8c0 18.7-15.2 33.9-33.9 33.9H66.1c-18.7 0-33.9-15.2-33.9-33.9V66.1c0-18.7 15.2-33.9 33.9-33.9Z" style="isolation:isolate" fill="#5f00d8" opacity=".1" data-color="1"></path>
    </g>
</svg>