<svg preserveAspectRatio="none" data-bbox="20 20 160 160" viewBox="20 20 160 160" xmlns="http://www.w3.org/2000/svg" data-type="color" role="presentation" aria-hidden="true" aria-label=""><defs><style>#comp-m1mea4ii svg [data-color="1"] {fill: #1D0E03;}</style></defs>
    <g>
        <path d="M68.9 40h60.9c16.8 0 30.4 13.6 30.4 30.4v60.9c0 16.8-13.6 30.4-30.4 30.4H68.9c-16.8 0-30.4-13.6-30.4-30.4V70.4C38.5 53.6 52.1 40 68.9 40Z" style="isolation:isolate" fill="#5f00d8" opacity=".1" data-color="1"></path>
        <path d="M140 20H60c-22.1 0-40 17.9-40 40v80c0 22.1 17.9 40 40 40h80c22.1 0 40-17.9 40-40V60c0-22.1-17.9-40-40-40Zm-22.6 42.4c0-2.4 2-4.4 4.4-4.4h20c2.4 0 4.4 2 4.4 4.4v8.5c0 2.4-2 4.4-4.4 4.4h-24.4V62.4ZM82.8 75.3h34.6v16.6H82.8V75.3Zm0 62.8c0 2.4-2 4.4-4.4 4.4h-20c-2.4 0-4.4-2-4.4-4.4v-8.5c0-2.4 2-4.4 4.4-4.4h24.4v12.9Zm0-29.5H58.4c-2.4 0-4.4-2-4.4-4.4v-7.9c0-2.4 2-4.4 4.4-4.4h24.4v16.6Zm0-33.3H58.4c-2.4 0-4.4-2-4.4-4.4v-8.5c0-2.4 2-4.4 4.4-4.4h20c2.4 0 4.4 2 4.4 4.4v12.9Zm63.4 62.8c0 2.4-2 4.4-4.4 4.4h-20.1c-2.4 0-4.4-2-4.4-4.4v-12.9H82.8v-16.6h34.5V92h24.4c2.4 0 4.4 2 4.4 4.4v7.9c0 2.4-2 4.4-4.4 4.4h-24.4v16.6h24.4c2.4 0 4.4 2 4.4 4.4v8.5h.1Z" style="isolation:isolate" fill="#5f00d8" data-color="1"></path>
    </g>
</svg>