<svg preserveAspectRatio="none" data-bbox="20 20 160 160" viewBox="20 20 160 160" xmlns="http://www.w3.org/2000/svg" data-type="color" role="presentation" aria-hidden="true" aria-label=""><defs><style>#comp-m1mea4gz3 svg [data-color="1"] {fill: #1D0E03;}</style></defs>
    <g>
        <path d="M60 20h80c22.1 0 40 17.9 40 40v80c0 22.1-17.9 40-40 40H60c-22.1 0-40-17.9-40-40V60c0-22.1 17.9-40 40-40Z" style="isolation:isolate" fill="#5f00d8" opacity=".1" data-color="1"></path>
        <path d="M140 20H60c-22.1 0-40 17.9-40 40v80c0 22.1 17.9 40 40 40h80c22.1 0 40-17.9 40-40V60c0-22.1-17.9-40-40-40Zm-81.6 88.4c-2.4 0-4.4-2-4.4-4.4v-7.9c0-2.4 2-4.4 4.4-4.4h16.8v16.6H58.4ZM91.8 125H79.6c-2.4 0-4.4-2-4.4-4.4v-12.2h16.6V125Zm0-33.2H75.2V79.6c0-2.4 2-4.4 4.4-4.4h12.2v16.6Zm16.6 50.5c0 2.4-2 4.4-4.4 4.4h-7.9c-2.4 0-4.4-2-4.4-4.4V125h16.6v17.3Zm16.6-21.7c0 2.4-2 4.4-4.4 4.4h-12.2v-16.6H125v12.2Zm0-28.8h-16.6V75.2H91.8V58.4c0-2.4 2-4.4 4.4-4.4h7.9c2.4 0 4.4 2 4.4 4.4v16.7h12.2c2.4 0 4.4 2 4.4 4.4v12.2Zm21.7 12.2c0 2.4-2 4.4-4.4 4.4H125V91.8h17.3c2.4 0 4.4 2 4.4 4.4v7.9Z" style="isolation:isolate" fill="#5f00d8" data-color="1"></path>
    </g>
</svg>